<svg width="680" height="780" viewBox="0 0 680 780" xmlns="http://www.w3.org/2000/svg">
<defs>
  <style>@import url('https://fonts.googleapis.com/css2?family=Montserrat:ital,wght@0,400;0,700;0,900;1,700;1,900&amp;family=JetBrains+Mono:wght@400;600;700&amp;display=swap');</style>
  <pattern id="grid80" width="18" height="18" patternUnits="userSpaceOnUse">
    <line x1="0" y1="0" x2="18" y2="18" stroke="#d946ef" stroke-width="0.35" opacity="0.15"/>
    <line x1="18" y1="0" x2="0" y2="18" stroke="#7c3aed" stroke-width="0.35" opacity="0.1"/>
  </pattern>
  <pattern id="scanlines" width="2" height="4" patternUnits="userSpaceOnUse">
    <rect x="0" y="0" width="2" height="2" fill="#d946ef" opacity="0.06"/>
  </pattern>
  <radialGradient id="gc" cx="50%" cy="50%" r="50%">
    <stop offset="0%" stop-color="#7c3aed" stop-opacity="0.35"/>
    <stop offset="60%" stop-color="#4a1560" stop-opacity="0.15"/>
    <stop offset="100%" stop-color="#000000" stop-opacity="0"/>
  </radialGradient>
  <radialGradient id="gs" cx="50%" cy="50%" r="50%">
    <stop offset="0%" stop-color="#d946ef" stop-opacity="0.2"/>
    <stop offset="100%" stop-color="#000000" stop-opacity="0"/>
  </radialGradient>
  <clipPath id="cc">
    <circle cx="340" cy="310" r="275"/>
  </clipPath>
</defs>

<!-- Fondo transparente — sin rect de fondo -->
<circle cx="340" cy="310" r="280" fill="url(#gs)"/>
<circle cx="340" cy="310" r="275" fill="#100520"/>
<rect x="65" y="35" width="550" height="550" fill="url(#scanlines)" clip-path="url(#cc)"/>
<rect x="65" y="35" width="550" height="550" fill="url(#grid80)" clip-path="url(#cc)"/>
<circle cx="340" cy="310" r="230" fill="url(#gc)"/>

<circle cx="340" cy="310" r="275" fill="none" stroke="#d946ef" stroke-width="3"/>
<circle cx="340" cy="310" r="262" fill="none" stroke="#7c3aed" stroke-width="1" opacity="0.5"/>
<circle cx="340" cy="310" r="250" fill="none" stroke="#d946ef" stroke-width="0.5" stroke-dasharray="6,4" opacity="0.3"/>

<circle cx="90" cy="310" r="5" fill="#d946ef"/>
<circle cx="590" cy="310" r="5" fill="#d946ef"/>
<circle cx="183" cy="162" r="3.5" fill="#7c3aed" opacity="0.7"/>
<circle cx="497" cy="162" r="3.5" fill="#7c3aed" opacity="0.7"/>
<circle cx="183" cy="458" r="3.5" fill="#7c3aed" opacity="0.7"/>
<circle cx="497" cy="458" r="3.5" fill="#7c3aed" opacity="0.7"/>

<path id="arc-top" d="M 340,310 m -242,0 a 242,242 0 0,1 484,0" fill="none"/>
<text font-family="'JetBrains Mono', monospace" font-size="10.5" font-weight="700" fill="#d946ef" letter-spacing="3">
  <textPath href="#arc-top" startOffset="4%">PASAPORTE COMEV</textPath>
</text>
<text font-family="'JetBrains Mono', monospace" font-size="11" font-weight="700" fill="#d946ef" letter-spacing="5">
  <textPath href="#arc-top" startOffset="50%" text-anchor="middle">¡VIVA  CHIHUAHUA!</textPath>
</text>
<text font-family="'JetBrains Mono', monospace" font-size="10.5" font-weight="700" fill="#d946ef" letter-spacing="3">
  <textPath href="#arc-top" startOffset="74%">CONVENCIÓN NACIONAL</textPath>
</text>

<path id="arc-bot" d="M 340,310 m -242,0 a 242,242 0 0,0 484,0" fill="none"/>
<text font-family="'JetBrains Mono', monospace" font-size="10" font-weight="400" fill="#a855f7" letter-spacing="6">
  <textPath href="#arc-bot" startOffset="50%" text-anchor="middle">HACIENDA  SAN  JOSÉ  ·  3  SEPTIEMBRE  2026</textPath>
</text>

<text x="340" y="177" text-anchor="middle" font-family="'JetBrains Mono', monospace" font-size="9" font-weight="700" fill="#7c3aed" letter-spacing="6">SELLO  N°1</text>
<line x1="218" y1="184" x2="302" y2="184" stroke="#7c3aed" stroke-width="0.8" opacity="0.6"/>
<circle cx="340" cy="187" r="3" fill="none" stroke="#d946ef" stroke-width="1.5"/>
<line x1="378" y1="184" x2="462" y2="184" stroke="#7c3aed" stroke-width="0.8" opacity="0.6"/>

<text x="340" y="248" text-anchor="middle" font-family="'Montserrat', sans-serif" font-size="58" font-weight="900" font-style="italic" fill="#ffffff" letter-spacing="-3">FLASH</text>
<rect x="192" y="256" width="296" height="3" fill="#d946ef" opacity="0.8"/>
<rect x="192" y="259" width="296" height="1" fill="#f0abfc" opacity="0.4"/>

<text x="340" y="312" text-anchor="middle" font-family="'Montserrat', sans-serif" font-size="62" font-weight="900" font-style="italic" fill="#d946ef" letter-spacing="2">BACK</text>
<rect x="192" y="319" width="296" height="1" fill="#f0abfc" opacity="0.4"/>
<rect x="192" y="322" width="296" height="3" fill="#d946ef" opacity="0.8"/>

<!-- CASSETTE -->
<g transform="translate(191, 334)">
  <rect x="0" y="4" width="60" height="38" rx="4" fill="#1e0a2e" stroke="#f0abfc" stroke-width="2"/>
  <rect x="10" y="12" width="40" height="22" rx="2" fill="#100520" stroke="#d946ef" stroke-width="1.2"/>
  <circle cx="21" cy="23" r="7" fill="none" stroke="#f0abfc" stroke-width="1.8"/>
  <circle cx="21" cy="23" r="3" fill="#f0abfc"/>
  <circle cx="39" cy="23" r="7" fill="none" stroke="#f0abfc" stroke-width="1.8"/>
  <circle cx="39" cy="23" r="3" fill="#f0abfc"/>
  <line x1="24" y1="30" x2="36" y2="30" stroke="#d946ef" stroke-width="1.5"/>
  <rect x="0" y="16" width="4" height="14" rx="1" fill="#d946ef" opacity="0.6"/>
  <rect x="56" y="16" width="4" height="14" rx="1" fill="#d946ef" opacity="0.6"/>
  <rect x="6" y="35" width="48" height="4" rx="1" fill="#7c3aed" opacity="0.5"/>
</g>

<!-- ECUALIZADOR -->
<g transform="translate(271, 328)">
  <rect x="0"  y="28" width="7" height="16" rx="2" fill="#d946ef"/>
  <rect x="10" y="14" width="7" height="30" rx="2" fill="#f0abfc"/>
  <rect x="20" y="20" width="7" height="24" rx="2" fill="#d946ef"/>
  <rect x="30" y="8"  width="7" height="36" rx="2" fill="#f0abfc"/>
  <rect x="40" y="16" width="7" height="28" rx="2" fill="#d946ef"/>
  <rect x="50" y="4"  width="7" height="40" rx="2" fill="#f0abfc"/>
  <rect x="60" y="20" width="7" height="24" rx="2" fill="#d946ef"/>
  <line x1="0" y1="46" x2="67" y2="46" stroke="#7c3aed" stroke-width="1.5" stroke-linecap="round"/>
</g>

<!-- VINILO -->
<g transform="translate(358, 328)">
  <circle cx="26" cy="26" r="26" fill="#1e0a2e" stroke="#f0abfc" stroke-width="2"/>
  <circle cx="26" cy="26" r="22" fill="none" stroke="#f0abfc" stroke-width="0.7" opacity="0.4"/>
  <circle cx="26" cy="26" r="18" fill="none" stroke="#f0abfc" stroke-width="0.7" opacity="0.4"/>
  <circle cx="26" cy="26" r="14" fill="none" stroke="#f0abfc" stroke-width="0.7" opacity="0.4"/>
  <circle cx="26" cy="26" r="10" fill="none" stroke="#f0abfc" stroke-width="0.7" opacity="0.4"/>
  <circle cx="26" cy="26" r="7" fill="#d946ef"/>
  <circle cx="26" cy="26" r="2" fill="#1e0a2e"/>
  <path d="M10 14 Q14 10 20 12" fill="none" stroke="#f0abfc" stroke-width="1.2" stroke-linecap="round" opacity="0.5"/>
</g>

<!-- MICRÓFONO -->
<g transform="translate(438, 328)">
  <ellipse cx="20" cy="16" rx="14" ry="18" fill="#1e0a2e" stroke="#f0abfc" stroke-width="2"/>
  <line x1="8"  y1="10" x2="32" y2="10" stroke="#f0abfc" stroke-width="1" stroke-linecap="round" opacity="0.7"/>
  <line x1="7"  y1="14" x2="33" y2="14" stroke="#f0abfc" stroke-width="1" stroke-linecap="round" opacity="0.7"/>
  <line x1="7"  y1="18" x2="33" y2="18" stroke="#f0abfc" stroke-width="1" stroke-linecap="round" opacity="0.7"/>
  <line x1="8"  y1="22" x2="32" y2="22" stroke="#f0abfc" stroke-width="1" stroke-linecap="round" opacity="0.7"/>
  <circle cx="20" cy="16" r="4" fill="#d946ef" opacity="0.6"/>
  <rect x="17" y="34" width="6" height="8" rx="1" fill="#f0abfc"/>
  <rect x="8" y="42" width="24" height="4" rx="2" fill="#f0abfc"/>
  <rect x="4" y="44" width="32" height="3" rx="2" fill="#7c3aed" opacity="0.8"/>
</g>

<rect x="192" y="414" width="296" height="44" fill="#d946ef"/>
<rect x="192" y="414" width="4" height="44" fill="#f0abfc" opacity="0.5"/>
<rect x="484" y="414" width="4" height="44" fill="#f0abfc" opacity="0.5"/>
<text x="340" y="442" text-anchor="middle" font-family="'JetBrains Mono', monospace" font-size="16" font-weight="900" fill="#1e0a2e" letter-spacing="4">ROMPE HIELO</text>

<text x="340" y="478" text-anchor="middle" font-family="'Montserrat', sans-serif" font-size="13" font-weight="700" font-style="italic" fill="#f0abfc" letter-spacing="1">Jueves 3 de Septiembre, 2026</text>

<text x="340" y="504" text-anchor="middle" font-family="'JetBrains Mono', monospace" font-size="8" fill="#3b0764" letter-spacing="4">★  ¡VIVA  CHIHUAHUA!  ★</text>

<line x1="192" y1="600" x2="488" y2="600" stroke="#172b41" stroke-width="0.8"/>

<rect x="192" y="612" width="296" height="12" rx="6" fill="#1e0a2e"/>
<rect x="192" y="612" width="42" height="12" rx="6" fill="#d946ef"/>
<text x="340" y="622" text-anchor="middle" font-family="'JetBrains Mono', monospace" font-size="7" fill="#7c3aed" letter-spacing="2">1 / 7  SELLOS</text>

<g transform="translate(192, 638)">
  <circle cx="20" cy="10" r="9" fill="#d946ef"/>
  <text x="20" y="14.5" text-anchor="middle" font-family="'Montserrat', sans-serif" font-size="9" font-weight="900" fill="#1e0a2e">1</text>
  <line x1="29" y1="10" x2="54" y2="10" stroke="#3b0764" stroke-width="1"/>
  <circle cx="63" cy="10" r="9" fill="#1e0a2e" stroke="#3b0764" stroke-width="1.5" stroke-dasharray="3,2"/>
  <text x="63" y="14.5" text-anchor="middle" font-family="'Montserrat', sans-serif" font-size="9" font-weight="700" fill="#3b0764">2</text>
  <line x1="72" y1="10" x2="97" y2="10" stroke="#3b0764" stroke-width="1"/>
  <circle cx="106" cy="10" r="9" fill="#1e0a2e" stroke="#3b0764" stroke-width="1.5" stroke-dasharray="3,2"/>
  <text x="106" y="14.5" text-anchor="middle" font-family="'Montserrat', sans-serif" font-size="9" font-weight="700" fill="#3b0764">3</text>
  <line x1="115" y1="10" x2="140" y2="10" stroke="#3b0764" stroke-width="1"/>
  <circle cx="149" cy="10" r="9" fill="#1e0a2e" stroke="#3b0764" stroke-width="1.5" stroke-dasharray="3,2"/>
  <text x="149" y="14.5" text-anchor="middle" font-family="'Montserrat', sans-serif" font-size="9" font-weight="700" fill="#3b0764">4</text>
  <line x1="158" y1="10" x2="183" y2="10" stroke="#3b0764" stroke-width="1"/>
  <circle cx="192" cy="10" r="9" fill="#1e0a2e" stroke="#3b0764" stroke-width="1.5" stroke-dasharray="3,2"/>
  <text x="192" y="14.5" text-anchor="middle" font-family="'Montserrat', sans-serif" font-size="9" font-weight="700" fill="#3b0764">5</text>
  <line x1="201" y1="10" x2="226" y2="10" stroke="#3b0764" stroke-width="1"/>
  <circle cx="235" cy="10" r="9" fill="#1e0a2e" stroke="#3b0764" stroke-width="1.5" stroke-dasharray="3,2"/>
  <text x="235" y="14.5" text-anchor="middle" font-family="'Montserrat', sans-serif" font-size="9" font-weight="700" fill="#3b0764">6</text>
  <line x1="244" y1="10" x2="269" y2="10" stroke="#3b0764" stroke-width="1"/>
  <circle cx="278" cy="10" r="9" fill="#1e0a2e" stroke="#3b0764" stroke-width="1.5" stroke-dasharray="3,2"/>
  <text x="278" y="14.5" text-anchor="middle" font-family="'Montserrat', sans-serif" font-size="9" font-weight="700" fill="#3b0764">7</text>
</g>

<text x="340" y="764" text-anchor="middle" font-family="'JetBrains Mono', monospace" font-size="8" fill="#3b0764" letter-spacing="3" opacity="0.7">PASAPORTE  NORTEÑO  ·  COMEV  2026</text>
</svg>
